<svg id="Layer_1" data-name="Layer 1" xmlns="http://www.w3.org/2000/svg" viewBox="0 0 1080 1080"><path d="M433.12,757l-31.22-43-37.14,20.17c0-4.8-.66-7.87.09-8.26,81.24-42.21,34.76-115.7,49.65-177.76H291.77c3.6,53.07-11.45,105.07,11.23,159.38-3,2.55-10.91,8.07-17.28,15-25.44,27.81-50.86,32.83-86.45,13.25-43.06-23.69-84.85-11.3-120.13,28.61,5.25-73.1,80.64-95.55,197.54-60.57V339.66C236,387,194.4,388.08,149.06,367.12c-19-8.81-44.29-16.82-54.41,8.58-6.64,16.65.56,38.82,1.41,55.37-13.62-3.4-22.9-17.25-19.3-41.85,6.57-44.91,47.44-76.1,92.22-69.68a135,135,0,0,1,31.89,8.51c29.46,12.15,58,19,88.92-18V504H412c-4.29-47.95,12.17-96.37-13.13-144.84l-34.37,13L361,365.65c21.79-14.51,42-34.93,66-41.21,13.31-3.49,32.8,16.6,52.9,28l29.25-17.07c.82,4.26,1.9,7.75,1.47,7.94-48.52,22.16-52.28,62.87-50.3,109.69,2.89,68.7.63,137.61.79,206.43.1,46.43,6.68,52.19,50.85,47.6Z"/><path d="M665.45,407.92v280c38,2.44,76.46,33.61,110.5-15.86q2.53,6.47,5.08,12.92c-26.38,21.76-52.51,43.84-79.47,64.86-3.37,2.63-12.13,1.4-16.76-1.08C632.87,721,586.39,727.82,544,770.07c14.93-38.86,45.55-60,81.63-71.25,21.13-6.6,26.29-16.55,26.1-36.46-.75-81.11-.27-162.23-.35-243.35,0-51.67-30.64-70.55-79.13-48.12-12.68,5.86-23.93,14.79-38.29,23.86,26.92-81.71,106.22-103,160.12-43.49,26,28.71,45,64.09,65.39,97.56,44.41,73.08,87.65,146.88,137,229.75v-297c-36.81-5.53-71.42-43.43-111.31,4.06l-2.61-13.81L872.78,311c40.56,40.29,82.88,44.79,126.32.13q2.68,6.21,5.36,12.43c-21.14,16.37-40.22,37.56-64,47.77-24,10.27-29,22.94-28.77,46.39,1.13,99.55.55,199.11.39,298.67,0,11.73-1.27,23.46-11.06,40.55-15.34-17.56-33.38-33.43-45.57-52.95-55.28-88.51-108.87-178.08-163.17-267.2-6.3-10.35-13.26-20.3-19.92-30.43Z"/><path d="M191.29,657c0-62.71-.24-125.92.08-189.13.21-40.84,10-53.42,45.94-66.84,0,61.16-.38,124.29.14,187.41C237.76,625.38,219.58,647.3,191.29,657Z"/><path d="M1045,35V1045H35V35H1045m35-35H0V1080H1080V0Z"/></svg>